<svg width="512" height="512" viewBox="0 0 512 512" fill="none" xmlns="http://www.w3.org/2000/svg">
  <rect width="512" height="512" rx="120" fill="#00473E"/>
  <path d="M256 120C302.944 120 341.333 158.389 341.333 205.333V224H362.667C379.2 224 392 236.8 392 253.333V362.667C392 379.2 379.2 392 362.667 392H149.333C132.8 392 120 379.2 120 362.667V253.333C120 236.8 132.8 224 149.333 224H170.667V205.333C170.667 158.389 209.056 120 256 120ZM320 224V205.333C320 170.155 291.845 142 256 142C220.155 142 192 170.155 192 205.333V224H320ZM256 298.667C273.673 298.667 288 284.34 288 266.667C288 249.327 274.673 235 256 235C238.327 235 224 249.327 224 266.667C224 284.34 238.327 298.667 256 298.667Z" fill="#EAF5EF"/>
  <circle cx="256" cy="330" r="12" fill="#2F7F6D"/>
</svg>
